<svg width="100%" height="100%" id="svg" viewBox="0 0 1440 490" xmlns="http://www.w3.org/2000/svg" class="transition duration-300 ease-in-out delay-150"><defs><linearGradient id="gradient" x1="0%" y1="50%" x2="100%" y2="50%"><stop offset="5%" stop-color="#F78DA7"></stop><stop offset="95%" stop-color="#8ED1FC"></stop></linearGradient></defs><path d="M 0,500 C 0,500 0,125 0,125 C 52.85743730676742,141.57506011679834 105.71487461353485,158.1501202335967 170,153 C 234.28512538646515,147.8498797664033 309.997938852628,120.97457918241155 388,111 C 466.002061147372,101.02542081758845 546.2933699759534,107.95156303675711 621,125 C 695.7066300240466,142.0484369632429 764.8285812435589,169.21916867055995 822,165 C 879.1714187564411,160.78083132944005 924.3923050498111,125.17176228100307 997,116 C 1069.607694950189,106.82823771899693 1169.6021985571967,124.09378220542769 1248,130 C 1326.3978014428033,135.9062177945723 1383.1989007214015,130.45310889728614 1440,125 C 1440,125 1440,500 1440,500 Z" stroke="none" stroke-width="0" fill="url(#gradient)" fill-opacity="0.4" class="transition-all duration-300 ease-in-out delay-150 path-0"></path><defs><linearGradient id="gradient" x1="0%" y1="50%" x2="100%" y2="50%"><stop offset="5%" stop-color="#F78DA7"></stop><stop offset="95%" stop-color="#8ED1FC"></stop></linearGradient></defs><path d="M 0,500 C 0,500 0,250 0,250 C 84.49261422191688,268.5661284781862 168.98522844383376,287.1322569563724 232,276 C 295.01477155616624,264.8677430436276 336.5517004465819,224.0371006526967 409,229 C 481.4482995534181,233.9628993473033 584.8079697698385,284.71934043284097 644,296 C 703.1920302301615,307.28065956715903 718.2164204740639,279.08553761593953 788,268 C 857.7835795259361,256.91446238406047 982.3263483339058,262.9385091034009 1059,271 C 1135.6736516660942,279.0614908965991 1164.4781861903125,289.1604259704569 1220,286 C 1275.5218138096875,282.8395740295431 1357.7609069048438,266.41978701477154 1440,250 C 1440,250 1440,500 1440,500 Z" stroke="none" stroke-width="0" fill="url(#gradient)" fill-opacity="0.53" class="transition-all duration-300 ease-in-out delay-150 path-1"></path><defs><linearGradient id="gradient" x1="0%" y1="50%" x2="100%" y2="50%"><stop offset="5%" stop-color="#F78DA7"></stop><stop offset="95%" stop-color="#8ED1FC"></stop></linearGradient></defs><path d="M 0,500 C 0,500 0,375 0,375 C 76.3833734111989,370.8144967365167 152.7667468223978,366.62899347303335 211,365 C 269.2332531776022,363.37100652696665 309.31638612160765,364.29852284438334 378,368 C 446.68361387839235,371.70147715561666 543.9677086911714,378.1769151494331 613,368 C 682.0322913088286,357.8230848505669 722.8127791137065,330.9938165578839 793,343 C 863.1872208862935,355.0061834421161 962.7811748540021,405.8478186190313 1037,403 C 1111.218825145998,400.1521813809687 1160.0625214702852,343.61490896599105 1223,330 C 1285.9374785297148,316.38509103400895 1362.9687392648575,345.6925455170045 1440,375 C 1440,375 1440,500 1440,500 Z" stroke="none" stroke-width="0" fill="url(#gradient)" fill-opacity="1" class="transition-all duration-300 ease-in-out delay-150 path-2"></path></svg>